<svg height="316.227766" preserveAspectRatio="xMidYMid meet" viewBox="0 0 1122 1122" width="316.227766" xmlns="http://www.w3.org/2000/svg"><g transform="matrix(.1 0 0 -.1 0 1122)"><path d="m5430 11203c-1705-55-3285-880-4308-2248-540-721-890-1538-1036-2415-60-362-81-652-73-1045 10-509 64-881 207-1425 157-598 478-1255 874-1790 68-92 212-273 266-335 531-603 1117-1055 1795-1385 281-137 696-299 767-300 15 0 91-18 168-40 496-140 971-204 1520-204s1024 64 1520 204c77 22 153 40 169 40 64 0 460 153 731 283 820 392 1554 1000 2098 1739 286 390 518 809 698 1260 172 433 303 983 361 1523 22 204 25 842 5 1040-99 983-398 1826-925 2615-274 411-597 774-1002 1129-192 169-521 407-770 558-322 195-715 377-1081 501-518 175-1005 266-1569 292-121 5-245 9-275 8s-93-3-140-5z" fill="#d81920"/><g fill="#030200"><path d="m6010 10706c0-15-7-26-20-29-25-6-28-47-4-47 15 0 16-9 11-67-7-93-1-119 33-133 40-17 75-10 75 15 0 12-8 21-20 24-28 5-30 11-27 85 4 65 4 66 32 66 19 0 29 6 33 19 6 25 0 31-30 31-19 0-23 5-23 30 0 27-3 30-30 30-25 0-30-4-30-24z"/><path d="m5020 10690c0-19-7-33-20-40-27-15-25-38 4-46 22-5 24-13 31-79 8-91 33-121 89-111 27 5 36 12 36 26 0 15-7 20-24 20-32 0-34 5-42 89l-7 71h27c19 0 26 5 26 20 0 16-7 20-30 20-25 0-30 4-30 24 0 23-16 36-46 36-9 0-14-11-14-30z"/><path d="m4644 10695c-9-23 3-45 24-45 25 0 46 25 38 45-7 19-55 20-62 0z"/><path d="m5574 10690c-43-10-54-18-54-42 0-15 4-18 18-12 31 13 92 16 106 5 28-23 7-48-46-55-64-9-103-44-94-84 14-56 85-81 134-46 20 14 22 14 22-1 0-11 7-15 23-13 21 3 22 8 25 104 2 85 0 104-15 121-20 23-72 33-119 23zm76-164c0-45-59-63-83-24-16 24 9 48 49 48 29 0 34-3 34-24z"/><path d="m4513 10682c-10-6-9-21 1-67 8-33 24-107 36-165 12-57 26-107 32-111 5-4 19-4 30-1 16 4 19 11 14 36-10 60-57 281-62 299-6 18-30 22-51 9z"/><path d="m5301 10669c-30-18-34-18-45-4-9 13-14 13-28 3-16-12-16-27-7-163 5-82 12-156 14-163 3-7 15-12 27-10 21 3 23 8 22 61-1 41 2 57 12 57 7 0 16-4 19-10 3-5 22-10 41-10 93 0 128 154 53 230-36 35-62 38-108 9zm82-88c10-40-7-98-31-104-9-2-30 4-45 12-26 15-28 20-25 71 3 47 7 56 28 67 33 16 61-2 73-46z"/><path d="m5804 10677c-3-8-6-63-7-123l-2-109h25c24 0 25 3 30 72 6 81 24 113 65 113 21 0 25 5 25 30 0 35-21 40-59 14-22-16-24-16-33 0-11 19-37 21-44 3z"/><path d="m6182 10661c-10-6-7-33 18-133 30-124 30-127 13-163-15-31-15-37-3-45 18-12 22-12 36-2 13 8 154 294 154 312 0 5-11 10-25 10-21 0-30-12-64-81l-39-81-20 88c-23 95-38 116-70 95z"/><path d="m4833 10630c-27-16-33-26-33-53 0-41 21-61 78-77 24-6 46-18 49-27 10-25-26-45-69-40-27 4-38 1-38-8 0-24 29-38 70-32 62 8 90 31 90 72 0 43-26 72-74 80-74 14-69 65 6 65 32 0 39 3 36 18-5 26-75 28-115 2z"/><path d="m6453 10613c-23-9-14-32 15-39 68-14 68-15 13-74-65-69-85-104-68-118 6-5 41-14 77-20 51-8 68-7 79 3 20 20 6 33-44 41-52 7-52 8 23 89 58 63 65 94 22 105-43 12-104 18-117 13z"/><path d="m4666 10602c-2-4 5-58 17-121 21-116 34-138 63-109 13 13 13 25-1 104-9 49-20 99-25 112-9 21-44 31-54 14z"/><path d="m4101 10566c-6-7-8-21-5-30 9-24 58-17 62 8 6 31-36 48-57 22z"/><path d="m6672 10558c-21-21-13-28 37-28 53 0 85-20 79-49-3-13-15-16-63-13-71 3-93-10-105-62-7-32-5-39 18-56 33-27 66-34 90-21 27 14 32 14 32-3s40-29 45-13c3 7 14 50 25 96 22 95 16 125-30 148-32 16-112 17-128 1zm96-149c4-23-25-49-53-49-31 0-52 35-34 56 17 20 83 15 87-7z"/><path d="m4325 10534c-49-18-70-38-62-59 6-14 11-13 46 5 53 26 79 26 90-2s7-32-41-48c-40-12-78-51-78-80 0-10 9-29 21-44 27-35 76-35 117-1 17 14 33 21 36 16 6-10 46-3 46 8 0 23-51 187-62 197-21 21-70 25-113 8zm100-143c8-27-4-50-31-57-53-13-75 30-32 60 30 21 55 20 63-3z"/><path d="m6949 10483c-6-16-22-66-35-112-20-67-22-86-12-93 28-18 43-1 67 72 13 41 29 78 35 83 6 4 25 6 41 5 40-4 43-29 15-114-24-70-22-88 8-96 17-5 23 5 43 66 24 74 48 106 80 106 37 0 43-36 19-117-23-79-22-103 8-103 14 0 24 19 45 80 33 96 33 119 5 155-19 25-26 27-71 22-41-4-52-1-72 19-30 30-72 41-97 25-17-10-20-9-25 8-8 31-41 26-54-6z"/><path d="m4130 10470c-12-7-11-18 8-77 11-37 27-87 33-111 10-35 16-42 33-40 31 4 31 29 1 139-28 101-38 113-75 89z"/><path d="m7433 10458c-6-7-20-40-32-73s-26-69-31-80c-24-51-57-151-53-162 6-16 43-17 43-2 0 6 15-6 34-25 39-42 69-46 117-13 40 27 77 116 65 160-11 44-45 69-89 65-38-4-38-4-32 29 3 18 12 45 20 60 13 25 13 29-2 41-9 6-20 12-24 12-3 0-11-6-16-12zm72-184c20-21 11-80-18-111-46-51-106-10-86 60 16 58 70 85 104 51z"/><path d="m3965 10421c-41-17-60-50-60-105 2-114 82-169 175-121 35 18 42 28 34 49-8 20-28 21-44 1-7-8-25-15-41-15-35 0-58 32-66 88-4 33-2 42 18 56 13 9 36 16 52 16 25 0 27 2 17 20-11 21-48 26-85 11z"/><path d="m3690 10327c-30-15-70-73-70-101 0-40 48-126 75-136 38-14 71-12 108 6 40 21 50 32 65 70 18 43-15 132-57 157-34 20-86 22-121 4zm101-67c30-42 33-86 10-109-44-44-103-11-117 65-13 69 66 101 107 44z"/><path d="m7712 10328c-24-24-7-48 33-48 18 0 28 30 14 46-14 17-31 18-47 2z"/><path d="m7666 10228c-9-12-16-26-16-29 0-4-16-43-36-85-34-74-35-79-18-91 10-7 22-12 28-10 10 3 96 193 96 212 0 11-20 25-35 25-2 0-11-10-19-22z"/><path d="m3460 10222c-45-22-60-68-35-105 14-22 25-27 72-29 41-2 59-8 67-21 14-23-15-47-56-47-21 0-28-5-28-20 0-32 25-34 77-9 52 26 70 58 60 101-8 31-45 48-102 48-46 0-59 13-43 43 5 10 20 17 37 17 33 0 42 7 34 26-7 19-41 18-83-4z"/><path d="m7797 10173c-17-16-4-32 33-38 44-7 75-40 64-69-8-20-22-20-67-1-48 20-70 19-98-3-34-28-31-79 7-109 16-12 42-23 58-23s34-7 41-17c7-9 19-14 28-10 15 6 78 124 83 155 2 8 5 16 8 19s-2 19-10 35c-22 43-124 85-147 61zm38-145c47-21 21-62-37-56-36 3-49 28-28 53 15 18 31 19 65 3z"/><path d="m3222 10080c3-14 14-60 23-103 10-42 15-80 12-84-4-3-35 22-69 56-80 79-98 90-98 58 0-13 9-58 20-101 12-43 19-83 17-89-1-5-32 17-68 50-101 95-124 94-26-1 48-47 94-86 102-86 20 0 20 46-1 116-25 88-17 91 61 19 39-35 75-63 80-61 11 3 10 71-1 96-8 17-10 28-19 87-3 23-13 47-22 55-14 11-16 10-11-12z"/><path d="m8126 9928c-64-74-66-146-7-181 32-19 81-23 81-7 0 6-15 10-34 10-63 0-86 70-45 136 40 66 93 82 136 42 18-17 23-18 23-6 0 23-44 48-84 48-28 0-41-8-70-42z"/><path d="m3390 9930c0-5 5-10 10-10 6 0 10 5 10 10 0 6-4 10-10 10-5 0-10-4-10-10z"/><path d="m2882 9879c27-75 60-190 55-195s-104 71-144 112c-8 8-18 14-23 14-19 0-16-29 12-107 15-46 28-88 28-93 0-15-24 0-98 59-61 50-91 65-75 37 4-7 43-41 85-75 114-90 134-83 92 33-14 41-24 80-22 86 3 10 72-36 122-82 27-25 46-23 46 5-1 40-55 210-69 215-9 3-12-1-9-9z"/><path d="m7960 9861c0-14 5-19 15-14 17 6 15 25-3 31-7 2-12-5-12-17z"/><path d="m8352 9823c-60-29-101-108-82-158 10-26 55-61 92-70 25-6 79 14 103 39 17 17 45 82 45 104 0 26-35 69-70 87-36 19-47 19-88-2zm96-23c27-17 32-25 32-58 0-70-68-143-121-128-47 13-64 34-64 82 0 40 5 50 42 85 48 44 64 47 111 19z"/><path d="m8609 9673c-56-61-129-163-117-163 7 0 37 29 66 65 51 62 55 65 96 65 58 0 73-18 58-69-7-21-21-46-32-56s-20-23-20-30c0-6-11-21-25-33-24-21-33-42-17-42 4 1 23 21 42 46 59 77 64 81 98 89 23 5 40 2 57-9 39-26 32-62-25-135-50-65-65-96-33-70 37 31 103 132 103 158 0 39-38 71-83 71-30 0-37 4-37 19 0 11-3 27-6 36-8 19-55 45-84 45-17 0-20 4-15 20 8 27 4 25-26-7z"/><path d="m2560 9657c0-19 48-145 62-164 5-7 5-14-2-18-5-3-42 17-82 44-62 44-108 63-108 46 0-7 47-121 66-159 8-16 12-31 10-34-6-5-141 82-150 97-8 12-36 15-36 4 0-5 42-36 93-71 62-41 99-61 110-56 9 3 17 8 17 11 0 5-47 110-61 135-5 10-9 25-9 33 0 13 4 13 28-2 15-10 29-20 32-23 18-21 102-70 111-64 13 8 6 49-19 106-10 24-25 59-32 78-16 43-30 60-30 37z"/><path d="m1880 2961c-57-18-108-52-136-88-26-34-29-46-29-109 0-62 3-75 28-107 37-48 77-68 216-105 123-34 161-57 161-102 0-46-41-73-115-78-39-3-77 1-95 8-38 16-70 55-70 86 0 17-7 25-26 30-22 6-122-1-129-8-2-2 0-23 5-47 11-63 56-121 120-156 48-25 68-30 152-33 73-3 109 0 148 13 183 61 216 280 56 371-21 12-70 28-110 37-118 26-185 55-192 82-14 56 30 95 108 95 57 0 107-31 115-70l6-30h73 74v39c0 53-49 118-115 151-38 19-68 25-134 27-48 1-97-1-111-6z"/><path d="m2575 2963c-86-21-167-90-210-177-54-110-45-294 20-396 103-164 383-189 524-48 73 72 113 215 93 333-31 185-158 297-335 294-40-1-81-4-92-6zm173-142c69-35 102-103 102-211 0-162-77-243-217-227-58 6-91 32-123 93-21 41-25 62-24 134 0 92 19 143 66 187 49 46 133 56 196 24z"/><path d="m3303 2951c-71-24-115-56-153-113-47-68-69-141-70-223 0-167 62-274 197-337 60-28 70-30 156-26 103 5 139 19 200 77 47 44 67 79 83 149l12 52h-77-77l-13-44c-18-63-58-98-120-104-64-6-92 2-132 35-90 76-99 282-16 371 74 79 200 67 256-25l26-42 73-1h74l-7 33c-20 89-99 176-186 201-69 21-161 20-226-3z"/><path d="m5767 2956c-130-48-186-153-141-264 27-68 68-92 240-142 117-34 154-58 154-99-1-53-46-81-130-81-80 0-135 34-147 91-3 16-8 29-12 30-3 1-37 2-75 3l-68 2 6-50c8-69 49-123 122-161 54-28 64-30 173-30 106 0 120 2 167 27 64 34 105 92 112 158 7 76-4 112-48 156-42 42-73 56-228 95-132 34-166 79-100 134 29 24 38 27 92 23 51-4 63-9 87-36 16-18 29-39 29-47 0-12 15-15 75-15 69 0 75 2 75 20 0 59-56 137-125 172-52 27-202 35-258 14z"/><path d="m3830 2610v-350h75 75v350 350h-75-75z"/><path d="m4295 2943c-19-47-248-650-252-666-5-16 1-18 73-15l79 3 25 73 25 72h130 130l25-72 25-73 78-3c46-2 77 1 77 7s-21 65-46 133c-26 68-64 170-85 228s-57 156-80 218l-42 112h-78c-64 0-78-3-84-17zm125-288c18-55 35-106 38-112 3-10-17-13-82-13-47 0-86 1-86 3 0 1 14 40 31 87s35 100 40 119c6 18 14 29 19 25 4-5 22-54 40-109z"/><path d="m4770 2610v-350h250 250v65 65h-170-170v285 285h-80-80z"/><path d="m5350 2610v-350h75 75v350 350h-75-75z"/><path d="m6210 2890v-70h100 100v-280-280h80 80v280 280h100 100v70 70h-280-280z"/><path d="m6850 2612v-352h35 35v150 150h150c166 0 195 7 247 59 63 63 66 190 7 269-42 54-78 63-286 69l-188 6zm344 278c22-5 53-22 70-39 27-28 31-38 31-89 0-118-42-142-240-142h-135v140 140h118c64 0 135-5 156-10z"/><path d="m7598 2948c-8-7-34-60-56-118-23-58-82-205-132-328-49-123-88-228-85-233 4-5 19-9 34-9 26 0 30 7 71 110l43 110 155-2 154-3 42-105c40-101 43-105 74-108 21-2 32 1 32 10 0 13-64 185-155 413-24 61-55 142-70 180-33 84-41 95-69 95-12 0-29-6-38-12zm42-93c0-8 7-29 15-47s32-80 54-138c21-58 42-113 46-122 7-17-3-18-125-18h-132l7 27c6 26 53 151 97 261 21 50 38 67 38 37z"/><path d="m8000 2611v-351h35 35v155 155h140c166 0 192-9 220-73 10-23 21-78 25-122 9-112 10-115 52-115 32 0 35 2 28 23-3 12-11 66-16 120-10 109-27 151-70 175-36 21-36 24-1 39 15 7 38 29 52 50 20 30 25 49 25 103 0 82-28 129-95 163-41 20-63 22-237 25l-193 4zm393 269c61-30 85-120 50-182-33-56-75-68-233-68h-140v136 136l148-4c97-3 156-9 175-18z"/><path d="m8580 2930v-30h120 120v-320-320h29c21 0 30 6 35 23 3 12 6 156 6 320v297h115 115v30 30h-270-270z"/><path d="m9130 2942c0-10 56-104 125-208l125-189v-142-143h35 35v144 143l130 194c72 106 130 199 130 206 0 14-48 18-65 5-12-8-118-168-209-316l-18-29-111 169c-60 93-115 172-121 176-22 15-56 9-56-10z"/></g><path d="m3141 8740c-61-7-82-14-128-46-62-43-106-100-124-164-25-93-4-676 32-852 45-225 138-406 319-623 103-124 478-500 542-543 57-39 114-43 161-10 18 12 132 120 253 241 168 166 225 217 237 211 29-18 434-414 624-612l195-202-54-62c-87-102-327-352-920-963-59-60-130-135-159-165-28-30-125-131-214-225-339-355-404-429-544-615-47-63-88-117-92-120-13-12-67-109-82-148-36-91-13-178 57-214 36-19 65-22 235-28 106-4 204-5 217-2 39 7 53 34 90 168 19 71 46 169 60 218 26 93 72 186 127 254 17 22 158 170 312 329 154 158 393 405 530 547 138 143 357 368 487 500l237 241 561-560c438-438 563-569 575-600 8-22 19-105 24-185 19-276 81-431 250-627 76-87 248-246 292-269 34-17 63-8 123 38 74 57 620 619 640 658 16 33 17 43 7 69-10 23-243 265-324 336-104 91-249 162-377 185-36 7-128 15-205 20-91 5-154 14-181 24-31 13-171 148-592 576-304 307-552 562-552 566 0 10 34 46 565 599 132 137 285 297 341 355 289 301 356 371 435 453l87 90 42-24c43-24 171-153 221-222 59-81 77-163 149-679 16-117 30-217 30-222 0-18 193 2 280 29 219 70 473 223 679 411 92 84 191 203 191 229 0 14-16 37-42 60-24 20-66 58-93 83-28 26-104 97-170 157-66 61-122 112-125 115s-30 28-60 55c-31 28-107 97-170 155s-137 125-165 150c-27 25-61 56-76 70-14 14-72 68-129 120-203 185-386 354-440 405-30 28-103 95-162 148l-106 97-256-262c-256-262-257-263-235-281 49-39 312-293 320-308 13-25-57-102-555-609-149-151-372-383-496-515-217-232-348-364-362-365-8 0-531 520-686 683-67 71-122 134-122 140 0 7 88 100 195 207 280 279 305 318 269 406-26 64-577 594-713 687-138 93-340 174-540 218-82 18-138 21-381 24-157 2-318 0-359-5zm4138-4109c118-32 192-74 287-163 72-69 85-85 82-109-6-52-333-399-376-399-28 0-177 162-227 247-64 110-88 194-89 317-1 147-8 140 132 133 65-4 150-15 191-26z" fill="#ffc905"/></g></svg>